<mxfile host="Electron" modified="2023-08-06T09:05:06.522Z" agent="Mozilla/5.0 (X11; Linux x86_64) AppleWebKit/537.36 (KHTML, like Gecko) draw.io/21.6.5 Chrome/114.0.5735.243 Electron/25.3.1 Safari/537.36" etag="VJX0Zz3zBq-SoZMRVHDI" version="21.6.5" type="device">
  <diagram name="PÃ¡gina-1" id="4eklnUwOhGGixfhaEBbI">
    <mxGraphModel dx="1145" dy="703" grid="1" gridSize="10" guides="1" tooltips="1" connect="1" arrows="1" fold="1" page="1" pageScale="1" pageWidth="827" pageHeight="1169" math="0" shadow="0">
      <root>
        <mxCell id="0" />
        <mxCell id="1" parent="0" />
        <mxCell id="l6AwTrGG1Y8qJPoNC_j4-32" value="" style="group" parent="1" vertex="1" connectable="0">
          <mxGeometry x="140" y="182" width="120" height="80" as="geometry" />
        </mxCell>
        <mxCell id="l6AwTrGG1Y8qJPoNC_j4-25" value="" style="group;fillColor=#ffcc99;strokeColor=#C79350;container=0;" parent="l6AwTrGG1Y8qJPoNC_j4-32" vertex="1" connectable="0">
          <mxGeometry x="10" width="80" height="80" as="geometry" />
        </mxCell>
        <mxCell id="l6AwTrGG1Y8qJPoNC_j4-27" value="Category 2" style="text;html=1;strokeColor=none;fillColor=none;align=center;verticalAlign=middle;whiteSpace=wrap;rounded=0;" parent="l6AwTrGG1Y8qJPoNC_j4-32" vertex="1">
          <mxGeometry x="-10" y="25" width="120" height="30" as="geometry" />
        </mxCell>
        <mxCell id="l6AwTrGG1Y8qJPoNC_j4-7" value="" style="rounded=0;whiteSpace=wrap;html=1;" parent="1" vertex="1">
          <mxGeometry x="241" y="102" width="400" height="400" as="geometry" />
        </mxCell>
        <mxCell id="PT_H8rXOL2ZF843nsWrz-23" value="Feature 12" style="rounded=0;whiteSpace=wrap;html=1;container=0;fillColor=#fff2cc;strokeColor=#d6b656;" parent="1" vertex="1">
          <mxGeometry x="241" y="342" width="80" height="80" as="geometry" />
        </mxCell>
        <mxCell id="PT_H8rXOL2ZF843nsWrz-31" value="Feature 10" style="rounded=0;whiteSpace=wrap;html=1;container=0;fillColor=#fff2cc;strokeColor=#d6b656;" parent="1" vertex="1">
          <mxGeometry x="321" y="342" width="80" height="80" as="geometry" />
        </mxCell>
        <mxCell id="PT_H8rXOL2ZF843nsWrz-32" value="Feature 9" style="rounded=0;whiteSpace=wrap;html=1;container=0;fillColor=#fff2cc;strokeColor=#d6b656;" parent="1" vertex="1">
          <mxGeometry x="401" y="342" width="80" height="80" as="geometry" />
        </mxCell>
        <mxCell id="PT_H8rXOL2ZF843nsWrz-33" value="Feature 11" style="rounded=0;whiteSpace=wrap;html=1;container=0;fillColor=#fff2cc;strokeColor=#d6b656;" parent="1" vertex="1">
          <mxGeometry x="481" y="342" width="80" height="80" as="geometry" />
        </mxCell>
        <mxCell id="PT_H8rXOL2ZF843nsWrz-37" value="Feature 17" style="rounded=0;whiteSpace=wrap;html=1;fillColor=#FFFFFF;fontColor=#333333;strokeColor=#666666;" parent="1" vertex="1">
          <mxGeometry x="321" y="422" width="80" height="80" as="geometry" />
        </mxCell>
        <mxCell id="PT_H8rXOL2ZF843nsWrz-38" value="Feature 16" style="rounded=0;whiteSpace=wrap;html=1;fillColor=#FFFFFF;fontColor=#333333;strokeColor=#666666;" parent="1" vertex="1">
          <mxGeometry x="401" y="422" width="80" height="80" as="geometry" />
        </mxCell>
        <mxCell id="PT_H8rXOL2ZF843nsWrz-7" value="Feature 2" style="rounded=0;whiteSpace=wrap;html=1;fillColor=#f8cecc;strokeColor=#b85450;" parent="1" vertex="1">
          <mxGeometry x="321" y="262" width="80" height="80" as="geometry" />
        </mxCell>
        <mxCell id="l6AwTrGG1Y8qJPoNC_j4-8" value="Feature 1" style="rounded=0;whiteSpace=wrap;html=1;fillColor=#f8cecc;strokeColor=#b85450;" parent="1" vertex="1">
          <mxGeometry x="401" y="262" width="80" height="80" as="geometry" />
        </mxCell>
        <mxCell id="l6AwTrGG1Y8qJPoNC_j4-9" value="Feature 3" style="rounded=0;whiteSpace=wrap;html=1;fillColor=#f8cecc;strokeColor=#b85450;" parent="1" vertex="1">
          <mxGeometry x="481" y="262" width="80" height="80" as="geometry" />
        </mxCell>
        <mxCell id="l6AwTrGG1Y8qJPoNC_j4-17" value="0" style="rounded=0;whiteSpace=wrap;html=1;fillColor=#f8cecc;strokeColor=#b85450;" parent="1" vertex="1">
          <mxGeometry x="241" y="262" width="80" height="80" as="geometry" />
        </mxCell>
        <mxCell id="l6AwTrGG1Y8qJPoNC_j4-18" value="0" style="rounded=0;whiteSpace=wrap;html=1;fillColor=#f8cecc;strokeColor=#b85450;" parent="1" vertex="1">
          <mxGeometry x="561" y="262" width="80" height="80" as="geometry" />
        </mxCell>
        <mxCell id="l6AwTrGG1Y8qJPoNC_j4-26" value="Feature 8" style="rounded=0;whiteSpace=wrap;html=1;fillColor=#ffe6cc;strokeColor=#d79b00;" parent="1" vertex="1">
          <mxGeometry x="561" y="182" width="80" height="80" as="geometry" />
        </mxCell>
        <mxCell id="l6AwTrGG1Y8qJPoNC_j4-28" value="Feature 4" style="rounded=0;whiteSpace=wrap;html=1;fillColor=#ffe6cc;strokeColor=#d79b00;" parent="1" vertex="1">
          <mxGeometry x="401" y="182" width="80" height="80" as="geometry" />
        </mxCell>
        <mxCell id="l6AwTrGG1Y8qJPoNC_j4-29" value="Feature 6" style="rounded=0;whiteSpace=wrap;html=1;fillColor=#ffe6cc;strokeColor=#d79b00;" parent="1" vertex="1">
          <mxGeometry x="481" y="182" width="80" height="80" as="geometry" />
        </mxCell>
        <mxCell id="l6AwTrGG1Y8qJPoNC_j4-30" value="Feature 7" style="rounded=0;whiteSpace=wrap;html=1;fillColor=#ffe6cc;strokeColor=#d79b00;" parent="1" vertex="1">
          <mxGeometry x="241" y="182" width="80" height="80" as="geometry" />
        </mxCell>
        <mxCell id="l6AwTrGG1Y8qJPoNC_j4-31" value="Feature 5" style="rounded=0;whiteSpace=wrap;html=1;fillColor=#ffe6cc;strokeColor=#d79b00;" parent="1" vertex="1">
          <mxGeometry x="321" y="182" width="80" height="80" as="geometry" />
        </mxCell>
        <mxCell id="l6AwTrGG1Y8qJPoNC_j4-34" value="0" style="rounded=0;whiteSpace=wrap;html=1;fillColor=#fff2cc;strokeColor=#d6b656;" parent="1" vertex="1">
          <mxGeometry x="561" y="342" width="80" height="80" as="geometry" />
        </mxCell>
        <mxCell id="l6AwTrGG1Y8qJPoNC_j4-36" value="" style="group" parent="1" vertex="1" connectable="0">
          <mxGeometry x="140" y="342" width="120" height="80" as="geometry" />
        </mxCell>
        <mxCell id="PT_H8rXOL2ZF843nsWrz-20" value="" style="group;fillColor=#FFFF9C;strokeColor=#878753;container=0;" parent="l6AwTrGG1Y8qJPoNC_j4-36" vertex="1" connectable="0">
          <mxGeometry x="10" width="80" height="80" as="geometry" />
        </mxCell>
        <mxCell id="l6AwTrGG1Y8qJPoNC_j4-35" value="Category 3" style="text;html=1;strokeColor=none;fillColor=none;align=center;verticalAlign=middle;whiteSpace=wrap;rounded=0;" parent="l6AwTrGG1Y8qJPoNC_j4-36" vertex="1">
          <mxGeometry x="-10" y="25" width="120" height="30" as="geometry" />
        </mxCell>
        <mxCell id="l6AwTrGG1Y8qJPoNC_j4-38" value="Feature 14" style="rounded=0;whiteSpace=wrap;html=1;fillColor=#f5f5f5;fontColor=#333333;strokeColor=#666666;" parent="1" vertex="1">
          <mxGeometry x="321" y="102" width="80" height="80" as="geometry" />
        </mxCell>
        <mxCell id="l6AwTrGG1Y8qJPoNC_j4-39" value="Feature 13" style="rounded=0;whiteSpace=wrap;html=1;fillColor=#f5f5f5;fontColor=#333333;strokeColor=#666666;" parent="1" vertex="1">
          <mxGeometry x="401" y="102" width="80" height="80" as="geometry" />
        </mxCell>
        <mxCell id="l6AwTrGG1Y8qJPoNC_j4-40" value="Feature 15" style="rounded=0;whiteSpace=wrap;html=1;fillColor=#f5f5f5;fontColor=#333333;strokeColor=#666666;" parent="1" vertex="1">
          <mxGeometry x="481" y="102" width="80" height="80" as="geometry" />
        </mxCell>
        <mxCell id="l6AwTrGG1Y8qJPoNC_j4-41" value="" style="group" parent="1" vertex="1" connectable="0">
          <mxGeometry x="140" y="262" width="120" height="80" as="geometry" />
        </mxCell>
        <mxCell id="l6AwTrGG1Y8qJPoNC_j4-15" value="" style="group;fillColor=#ea9995;strokeColor=#b85450;container=0;" parent="l6AwTrGG1Y8qJPoNC_j4-41" vertex="1" connectable="0">
          <mxGeometry x="10" width="80" height="80" as="geometry" />
        </mxCell>
        <mxCell id="PT_H8rXOL2ZF843nsWrz-2" value="Category 1" style="text;html=1;strokeColor=none;fillColor=none;align=center;verticalAlign=middle;whiteSpace=wrap;rounded=0;" parent="l6AwTrGG1Y8qJPoNC_j4-41" vertex="1">
          <mxGeometry x="-10" y="25" width="120" height="30" as="geometry" />
        </mxCell>
        <mxCell id="l6AwTrGG1Y8qJPoNC_j4-45" value="0" style="rounded=0;whiteSpace=wrap;html=1;fillColor=#f5f5f5;strokeColor=#666666;fontColor=#333333;" parent="1" vertex="1">
          <mxGeometry x="561" y="102" width="80" height="80" as="geometry" />
        </mxCell>
        <mxCell id="l6AwTrGG1Y8qJPoNC_j4-46" value="0" style="rounded=0;whiteSpace=wrap;html=1;fillColor=#f5f5f5;strokeColor=#666666;fontColor=#333333;" parent="1" vertex="1">
          <mxGeometry x="241" y="102" width="80" height="80" as="geometry" />
        </mxCell>
        <mxCell id="l6AwTrGG1Y8qJPoNC_j4-47" value="" style="group" parent="1" vertex="1" connectable="0">
          <mxGeometry x="140" y="102" width="120" height="80" as="geometry" />
        </mxCell>
        <mxCell id="PT_H8rXOL2ZF843nsWrz-26" value="" style="group;fillColor=#eeeeee;strokeColor=#999999;container=0;" parent="l6AwTrGG1Y8qJPoNC_j4-47" vertex="1" connectable="0">
          <mxGeometry x="10" width="80" height="80" as="geometry" />
        </mxCell>
        <mxCell id="PT_H8rXOL2ZF843nsWrz-27" value="Category 4" style="text;html=1;strokeColor=none;fillColor=none;align=center;verticalAlign=middle;whiteSpace=wrap;rounded=0;" parent="l6AwTrGG1Y8qJPoNC_j4-47" vertex="1">
          <mxGeometry x="-10" y="25" width="120" height="30" as="geometry" />
        </mxCell>
        <mxCell id="l6AwTrGG1Y8qJPoNC_j4-48" value="0" style="rounded=0;whiteSpace=wrap;html=1;fillColor=#FFFFFF;fontColor=#333333;strokeColor=#666666;" parent="1" vertex="1">
          <mxGeometry x="481" y="422" width="80" height="80" as="geometry" />
        </mxCell>
        <mxCell id="l6AwTrGG1Y8qJPoNC_j4-49" value="0" style="rounded=0;whiteSpace=wrap;html=1;fillColor=#FFFFFF;fontColor=#333333;strokeColor=#666666;" parent="1" vertex="1">
          <mxGeometry x="561" y="422" width="80" height="80" as="geometry" />
        </mxCell>
        <mxCell id="l6AwTrGG1Y8qJPoNC_j4-50" value="0" style="rounded=0;whiteSpace=wrap;html=1;fillColor=#FFFFFF;fontColor=#333333;strokeColor=#666666;" parent="1" vertex="1">
          <mxGeometry x="241" y="422" width="80" height="80" as="geometry" />
        </mxCell>
        <mxCell id="l6AwTrGG1Y8qJPoNC_j4-52" value="" style="group" parent="1" vertex="1" connectable="0">
          <mxGeometry x="140" y="422" width="120" height="80" as="geometry" />
        </mxCell>
        <mxCell id="PT_H8rXOL2ZF843nsWrz-35" value="" style="group;fillColor=#f9f7ed;strokeColor=#36393d;container=0;" parent="l6AwTrGG1Y8qJPoNC_j4-52" vertex="1" connectable="0">
          <mxGeometry x="10" width="80" height="80" as="geometry" />
        </mxCell>
        <mxCell id="PT_H8rXOL2ZF843nsWrz-36" value="Category 5" style="text;html=1;strokeColor=none;fillColor=none;align=center;verticalAlign=middle;whiteSpace=wrap;rounded=0;" parent="l6AwTrGG1Y8qJPoNC_j4-52" vertex="1">
          <mxGeometry x="-10" y="25" width="120" height="30" as="geometry" />
        </mxCell>
        <mxCell id="5IEmvjTwRQ0qw5R5J5iI-1" value="" style="group" vertex="1" connectable="0" parent="1">
          <mxGeometry x="240" y="100" width="401.5" height="402.5" as="geometry" />
        </mxCell>
        <mxCell id="l6AwTrGG1Y8qJPoNC_j4-53" value="" style="rounded=0;whiteSpace=wrap;html=1;strokeWidth=3;fillColor=none;" parent="5IEmvjTwRQ0qw5R5J5iI-1" vertex="1">
          <mxGeometry x="1" y="1.5" width="400" height="401" as="geometry" />
        </mxCell>
        <mxCell id="l6AwTrGG1Y8qJPoNC_j4-60" value="" style="endArrow=none;html=1;rounded=0;exitX=0.199;exitY=1.002;exitDx=0;exitDy=0;exitPerimeter=0;entryX=0.2;entryY=0.001;entryDx=0;entryDy=0;entryPerimeter=0;strokeWidth=2;" parent="5IEmvjTwRQ0qw5R5J5iI-1" edge="1">
          <mxGeometry width="50" height="50" relative="1" as="geometry">
            <mxPoint x="160.26" y="402" as="sourcePoint" />
            <mxPoint x="160.26" as="targetPoint" />
          </mxGeometry>
        </mxCell>
        <mxCell id="l6AwTrGG1Y8qJPoNC_j4-61" value="" style="endArrow=none;html=1;rounded=0;exitX=0.199;exitY=1.002;exitDx=0;exitDy=0;exitPerimeter=0;entryX=0.2;entryY=0.001;entryDx=0;entryDy=0;entryPerimeter=0;strokeWidth=2;" parent="5IEmvjTwRQ0qw5R5J5iI-1" edge="1">
          <mxGeometry width="50" height="50" relative="1" as="geometry">
            <mxPoint x="241" y="402" as="sourcePoint" />
            <mxPoint x="241" as="targetPoint" />
          </mxGeometry>
        </mxCell>
        <mxCell id="l6AwTrGG1Y8qJPoNC_j4-62" value="" style="endArrow=none;html=1;rounded=0;exitX=0.199;exitY=1.002;exitDx=0;exitDy=0;exitPerimeter=0;entryX=0.2;entryY=0.001;entryDx=0;entryDy=0;entryPerimeter=0;strokeWidth=2;" parent="5IEmvjTwRQ0qw5R5J5iI-1" edge="1">
          <mxGeometry width="50" height="50" relative="1" as="geometry">
            <mxPoint x="320.26" y="402.5" as="sourcePoint" />
            <mxPoint x="320.26" y="0.5" as="targetPoint" />
          </mxGeometry>
        </mxCell>
        <mxCell id="l6AwTrGG1Y8qJPoNC_j4-65" value="" style="endArrow=none;html=1;rounded=0;exitX=0.999;exitY=0.202;exitDx=0;exitDy=0;exitPerimeter=0;entryX=-0.003;entryY=0.201;entryDx=0;entryDy=0;entryPerimeter=0;strokeWidth=2;" parent="5IEmvjTwRQ0qw5R5J5iI-1" edge="1">
          <mxGeometry width="50" height="50" relative="1" as="geometry">
            <mxPoint x="401.5" y="241.37" as="sourcePoint" />
            <mxPoint x="0.5" y="241.37" as="targetPoint" />
          </mxGeometry>
        </mxCell>
        <mxCell id="l6AwTrGG1Y8qJPoNC_j4-66" value="" style="endArrow=none;html=1;rounded=0;exitX=0.999;exitY=0.202;exitDx=0;exitDy=0;exitPerimeter=0;entryX=-0.003;entryY=0.201;entryDx=0;entryDy=0;entryPerimeter=0;strokeWidth=2;" parent="5IEmvjTwRQ0qw5R5J5iI-1" edge="1">
          <mxGeometry width="50" height="50" relative="1" as="geometry">
            <mxPoint x="401.5" y="320.38" as="sourcePoint" />
            <mxPoint x="0.5" y="320.38" as="targetPoint" />
          </mxGeometry>
        </mxCell>
        <mxCell id="l6AwTrGG1Y8qJPoNC_j4-59" value="" style="endArrow=none;html=1;rounded=0;exitX=0.199;exitY=1.002;exitDx=0;exitDy=0;exitPerimeter=0;entryX=0.2;entryY=0.001;entryDx=0;entryDy=0;entryPerimeter=0;strokeWidth=2;" parent="5IEmvjTwRQ0qw5R5J5iI-1" source="l6AwTrGG1Y8qJPoNC_j4-53" target="l6AwTrGG1Y8qJPoNC_j4-53" edge="1">
          <mxGeometry width="50" height="50" relative="1" as="geometry">
            <mxPoint x="320" y="497" as="sourcePoint" />
            <mxPoint x="320.23" y="102" as="targetPoint" />
          </mxGeometry>
        </mxCell>
        <mxCell id="l6AwTrGG1Y8qJPoNC_j4-63" value="" style="endArrow=none;html=1;rounded=0;exitX=0.999;exitY=0.202;exitDx=0;exitDy=0;exitPerimeter=0;entryX=-0.003;entryY=0.201;entryDx=0;entryDy=0;entryPerimeter=0;strokeWidth=2;" parent="5IEmvjTwRQ0qw5R5J5iI-1" source="l6AwTrGG1Y8qJPoNC_j4-53" target="l6AwTrGG1Y8qJPoNC_j4-53" edge="1">
          <mxGeometry width="50" height="50" relative="1" as="geometry">
            <mxPoint x="361" y="543" as="sourcePoint" />
            <mxPoint x="361" y="141" as="targetPoint" />
          </mxGeometry>
        </mxCell>
        <mxCell id="l6AwTrGG1Y8qJPoNC_j4-64" value="" style="endArrow=none;html=1;rounded=0;exitX=0.999;exitY=0.202;exitDx=0;exitDy=0;exitPerimeter=0;entryX=-0.003;entryY=0.201;entryDx=0;entryDy=0;entryPerimeter=0;strokeWidth=2;" parent="5IEmvjTwRQ0qw5R5J5iI-1" edge="1">
          <mxGeometry width="50" height="50" relative="1" as="geometry">
            <mxPoint x="402" y="162" as="sourcePoint" />
            <mxPoint x="1" y="162" as="targetPoint" />
          </mxGeometry>
        </mxCell>
      </root>
    </mxGraphModel>
  </diagram>
</mxfile>
